<?xml version="1.0" encoding="utf-8"?>
<!-- Generator: Adobe Illustrator 18.1.1, SVG Export Plug-In . SVG Version: 6.00 Build 0)  -->
<svg version="1.1" id="Layer_1" xmlns="http://www.w3.org/2000/svg" xmlns:xlink="http://www.w3.org/1999/xlink" x="0px" y="0px"
     viewBox="0 0 625.8 281.8" enable-background="new 0 0 625.8 281.8" xml:space="preserve">
<g>
    <path d="M98.5-96.4H0.9V-301h97.6v21.3H26.3v66.9h64.9v21.3H26.3v73.6h72.2V-96.4z"/>
    <path d="M273.2-96.4h-26l-11.1-51.7h-57l-11.4,51.7h-26L191.1-301h33.6L273.2-96.4z M231.4-170.1l-24-111.6l-23.7,111.6H231.4z"/>
    <path d="M414.7-146.1c0,16.6-4.5,29-13.6,37.3c-9.1,8.3-22.1,12.4-39,12.4h-41.5v-22.2H365c7.2,0,13-2.1,17.5-6.4
        c4.5-4.3,6.7-9.4,6.7-15.5V-171c0-5.8-1.5-10.6-4.5-14.2c-3-3.6-7.6-5.4-13.6-5.4h-8.8c-14.4,0-25.8-4.2-34.2-12.7
        c-8.4-8.5-12.6-20.8-12.6-37v-11.1c0-16.6,4.5-29,13.6-37.3c9.1-8.3,22.1-12.4,39-12.4H410v22.2h-44.7c-7.2,0-13.1,2.1-17.5,6.4
        c-4.5,4.3-6.7,9.5-6.7,15.5v22.2c0,6,1.9,11.1,5.8,15c3.9,4,9,6,15.2,6h8.8c13.8,0,24.6,4,32.3,12c7.7,8,11.5,20.1,11.5,36.2
        V-146.1z"/>
    <path d="M582.1-278.8h-46.5v182.3h-25.4v-182.3h-46.5V-301h118.4V-278.8z"/>
    <path d="M724.7-142.6c0,16.2-3.9,27.9-11.7,35.2c-7.8,7.3-20.5,11-38,11h-38.3v-21.9h40.9c7.4,0,12.9-1.7,16.4-5.1
        c3.5-3.4,5.3-8.8,5.3-16.2v-37.1c0-6.4-1.9-11.5-5.8-15.3c-3.9-3.8-9.1-5.7-15.5-5.7h-38.3V-301h80.7v21.9h-55.8v59.3h12
        c15,0,26.8,3.7,35.4,11.1c8.6,7.4,12.9,18.9,12.9,34.5V-142.6z"/>
</g>
<g>
    <path d="M691-262.4h-8.4v32.8h-4.6v-32.8h-8.4v-4H691V-262.4z"/>
    <path d="M718.8-229.6h-4.6v-16.9h-10.8v16.9h-4.6v-36.8h4.6v16h10.8v-16h4.6V-229.6z"/>
</g>
<g>
    <path d="M-379.5-427h-97.6v-204.6h97.6v21.3h-72.2v66.9h64.9v21.3h-64.9v73.6h72.2V-427z"/>
    <path d="M-252.8-427h-26l-11.1-51.7h-57l-11.4,51.7h-26l49.4-204.6h33.6L-252.8-427z M-294.6-500.7l-24-111.6l-23.7,111.6H-294.6z"
        />
    <path d="M-164.4-476.7c0,16.6-4.5,29-13.6,37.3c-9.1,8.3-22.1,12.4-39,12.4h-41.5v-22.2h44.4c7.2,0,13-2.1,17.5-6.4
        c4.5-4.3,6.7-9.4,6.7-15.5v-30.4c0-5.8-1.5-10.6-4.5-14.2c-3-3.6-7.6-5.4-13.6-5.4h-8.8c-14.4,0-25.8-4.2-34.2-12.7
        c-8.4-8.5-12.6-20.8-12.6-37v-11.1c0-16.6,4.5-29,13.6-37.3c9.1-8.3,22.1-12.4,39-12.4h41.8v22.2h-44.7c-7.2,0-13.1,2.1-17.5,6.4
        c-4.5,4.3-6.7,9.5-6.7,15.5v22.2c0,6,1.9,11.1,5.8,15c3.9,4,9,6,15.2,6h8.8c13.8,0,24.6,4,32.3,12c7.7,8,11.5,20.1,11.5,36.2
        V-476.7z"/>
    <path d="M-50.9-609.4h-46.5V-427h-25.4v-182.3h-46.5v-22.2h118.4V-609.4z"/>
    <path d="M33.7-473.2c0,16.2-3.9,27.9-11.7,35.2c-7.8,7.3-20.5,11-38,11h-38.3v-21.9h40.9c7.4,0,12.9-1.7,16.4-5.1
        c3.5-3.4,5.3-8.8,5.3-16.2v-37.1c0-6.4-1.9-11.5-5.8-15.3c-3.9-3.8-9.1-5.7-15.5-5.7h-38.3v-103.2h80.7v21.9h-55.8v59.3h12
        c15,0,26.8,3.7,35.4,11.1c8.6,7.4,12.9,18.9,12.9,34.5V-473.2z"/>
    <g>
        <path d="M0-593h-8.4v32.8h-4.6V-593h-8.4v-4H0V-593z"/>
        <path d="M27.8-560.2h-4.6v-16.9H12.4v16.9H7.8V-597h4.6v16h10.8v-16h4.6V-560.2z"/>
    </g>
</g>
<path d="M97.6,204.6H0V0h97.6v21.3H25.4v66.9h64.9v21.3H25.4v73.6h72.2V204.6z"/>
<path d="M255.4,204.6h-26l-11.1-51.7h-57l-11.4,51.7h-26L173.2,0h33.6L255.4,204.6z M213.6,130.9l-24-111.6l-23.7,111.6H213.6z"/>
<path d="M375.8,154.9c0,16.6-4.5,29-13.6,37.3c-9.1,8.3-22.1,12.4-39,12.4h-41.5v-22.2h44.4c7.2,0,13-2.1,17.5-6.4
    c4.5-4.3,6.7-9.4,6.7-15.5V130c0-5.8-1.5-10.6-4.5-14.2c-3-3.6-7.6-5.4-13.6-5.4h-8.8c-14.4,0-25.8-4.2-34.2-12.7
    c-8.4-8.5-12.6-20.8-12.6-37V49.7c0-16.6,4.5-29,13.6-37.3c9.1-8.3,22.1-12.4,39-12.4h41.8v22.2h-44.7c-7.2,0-13.1,2.1-17.5,6.4
    c-4.5,4.3-6.7,9.5-6.7,15.5v22.2c0,6,1.9,11.1,5.8,15c3.9,4,9,6,15.2,6h8.8c13.8,0,24.6,4,32.3,12c7.7,8,11.5,20.1,11.5,36.2V154.9z
    "/>
<path d="M515.2,22.2h-46.5v182.3h-25.4V22.2h-46.5V0h118.4V22.2z"/>
<path d="M625.8,158.4c0,16.2-3.9,27.9-11.7,35.2c-7.8,7.3-20.5,11-38,11h-38.3v-21.9h40.9c7.4,0,12.9-1.7,16.4-5.1
    c3.5-3.4,5.3-8.8,5.3-16.2v-37.1c0-6.4-1.9-11.5-5.8-15.3c-3.9-3.8-9.1-5.7-15.5-5.7h-38.3V0h80.7v21.9h-55.8v59.3h12
    c15,0,26.8,3.7,35.4,11.1c8.6,7.4,12.9,18.9,12.9,34.5V158.4z"/>
<path d="M592.1,38.6h-8.4v32.8h-4.6V38.6h-8.4v-4h21.3V38.6z"/>
<path d="M619.9,71.4h-4.6V54.5h-10.8v16.9h-4.6V34.6h4.6v16h10.8v-16h4.6V71.4z"/>
<g>
    <path d="M219.2,270.6c0.1,0,0.1,0,0.1,0.1l0.2,0.2c-0.6,0.6-1.2,1.1-1.9,1.5c-0.7,0.5-1.4,0.9-2.2,1.2c-0.8,0.3-1.7,0.6-2.6,0.8
        c-0.9,0.2-2,0.3-3.1,0.3c-1.8,0-3.6-0.3-5.1-1c-1.6-0.6-2.9-1.6-4.1-2.8c-1.1-1.2-2-2.7-2.7-4.4c-0.6-1.7-1-3.7-1-5.9
        c0-2.1,0.3-4,1-5.7c0.6-1.7,1.5-3.2,2.7-4.5c1.2-1.2,2.5-2.2,4.2-2.9c1.6-0.7,3.4-1,5.4-1c1,0,1.9,0.1,2.7,0.2
        c0.8,0.1,1.5,0.3,2.2,0.6s1.4,0.6,2,1s1.3,0.9,1.9,1.4l-0.1,0.1c-0.1,0.1-0.1,0.1-0.2,0.1c-0.1,0-0.2-0.1-0.4-0.2
        c-0.2-0.2-0.4-0.3-0.7-0.6s-0.7-0.5-1.1-0.7c-0.4-0.3-1-0.5-1.6-0.7c-0.6-0.2-1.3-0.4-2.1-0.6c-0.8-0.2-1.7-0.2-2.7-0.2
        c-1.9,0-3.6,0.3-5.1,1s-2.9,1.5-4,2.7c-1.1,1.2-2,2.6-2.6,4.3c-0.6,1.7-0.9,3.6-0.9,5.7c0,2.1,0.3,4.1,0.9,5.7
        c0.6,1.7,1.5,3.1,2.6,4.3c1.1,1.2,2.4,2.1,3.9,2.7c1.5,0.6,3.1,0.9,4.9,0.9c1.1,0,2.1-0.1,3-0.2s1.7-0.4,2.4-0.7
        c0.7-0.3,1.4-0.7,2-1.1c0.6-0.4,1.2-0.9,1.9-1.5C219.1,270.6,219.2,270.6,219.2,270.6z"/>
    <path d="M250.6,260.6c0,2.2-0.3,4.1-0.9,5.9c-0.6,1.7-1.5,3.2-2.6,4.4c-1.1,1.2-2.5,2.1-4,2.8c-1.6,0.6-3.3,1-5.2,1
        c-1.9,0-3.6-0.3-5.1-1c-1.6-0.6-2.9-1.6-4-2.8c-1.1-1.2-2-2.7-2.6-4.4c-0.6-1.7-0.9-3.7-0.9-5.9c0-2.2,0.3-4.1,0.9-5.9
        c0.6-1.7,1.5-3.2,2.6-4.4c1.1-1.2,2.5-2.2,4-2.8c1.6-0.7,3.3-1,5.1-1c1.9,0,3.6,0.3,5.2,1c1.6,0.6,2.9,1.6,4,2.8
        c1.1,1.2,2,2.7,2.6,4.4S250.6,258.4,250.6,260.6z M250.1,260.6c0-2.1-0.3-4.1-0.9-5.7c-0.6-1.7-1.4-3.1-2.5-4.3
        c-1.1-1.2-2.4-2.1-3.9-2.7c-1.5-0.6-3.2-0.9-5-0.9c-1.8,0-3.4,0.3-4.9,0.9c-1.5,0.6-2.8,1.5-3.9,2.7c-1.1,1.2-1.9,2.6-2.5,4.3
        s-0.9,3.6-0.9,5.7c0,2.1,0.3,4,0.9,5.7c0.6,1.7,1.5,3.1,2.5,4.3c1.1,1.2,2.4,2.1,3.9,2.7c1.5,0.6,3.1,0.9,4.9,0.9
        c1.8,0,3.5-0.3,5-0.9c1.5-0.6,2.8-1.5,3.9-2.7c1.1-1.2,1.9-2.6,2.5-4.3C249.8,264.6,250.1,262.7,250.1,260.6z"/>
    <path d="M271.2,268c0,0.1,0.1,0.1,0.1,0.2c0,0.1,0.1,0.1,0.1,0.2c0-0.1,0.1-0.2,0.1-0.2c0-0.1,0.1-0.1,0.1-0.2l12.1-21.1
        c0.1-0.1,0.2-0.2,0.3-0.2h0.2v27.5h-0.4V248c0-0.1,0-0.1,0-0.2s0-0.1,0-0.2l-12.1,21c-0.1,0.1-0.2,0.2-0.3,0.2h-0.1
        c-0.1,0-0.2-0.1-0.3-0.2l-12.4-21c0,0.1,0,0.1,0,0.2c0,0.1,0,0.1,0,0.2v26.3h-0.4v-27.5h0.2c0.1,0,0.2,0.1,0.3,0.2L271.2,268z"/>
    <path d="M294.9,262.5v11.8h-0.5v-27.5h6.2c3,0,5.3,0.6,6.9,1.9s2.4,3.3,2.4,5.9c0,1.1-0.2,2.2-0.7,3.2c-0.5,1-1.1,1.8-1.9,2.5
        c-0.8,0.7-1.8,1.2-2.9,1.6s-2.4,0.6-3.8,0.6H294.9z M294.9,262.1h5.7c1.4,0,2.6-0.2,3.7-0.6s2-0.9,2.8-1.6c0.8-0.7,1.4-1.5,1.8-2.4
        c0.4-0.9,0.6-1.9,0.6-2.9c0-2.5-0.7-4.3-2.2-5.6c-1.5-1.3-3.7-1.9-6.6-1.9h-5.7V262.1z"/>
    <path d="M326.2,274.2c1.5,0,2.8-0.3,4-0.8c1.2-0.5,2.2-1.3,3-2.2c0.8-0.9,1.4-2,1.9-3.2s0.6-2.5,0.6-4v-17.3h0.5v17.3
        c0,1.5-0.2,2.8-0.7,4.1c-0.5,1.3-1.1,2.4-2,3.4s-1.9,1.7-3.1,2.3c-1.2,0.6-2.6,0.8-4.1,0.8c-1.5,0-2.9-0.3-4.1-0.8
        c-1.2-0.6-2.3-1.3-3.1-2.3s-1.5-2.1-2-3.4s-0.7-2.7-0.7-4.1v-17.3h0.5v17.3c0,1.4,0.2,2.7,0.6,4c0.4,1.2,1.1,2.3,1.9,3.2
        c0.8,0.9,1.8,1.7,3,2.2C323.4,274,324.7,274.2,326.2,274.2z"/>
    <path d="M362.7,246.8v0.4h-10.3v27.1h-0.5v-27.1h-10.4v-0.4H362.7z"/>
    <path d="M369.5,274.3H369v-27.5h0.5V274.3z"/>
    <path d="M380.1,246.9l19.5,26.5c0-0.1,0-0.1,0-0.2s0-0.1,0-0.2v-26.3h0.4v27.5h-0.1c-0.1,0-0.2,0-0.2-0.1l-19.6-26.6
        c0,0.1,0,0.2,0,0.2c0,0.1,0,0.2,0,0.2v26.3h-0.4v-27.5h0.2C380,246.8,380,246.8,380.1,246.9z"/>
    <path d="M420.9,274.2c1.1,0,2.1-0.1,3.1-0.2c0.9-0.1,1.8-0.3,2.5-0.6c0.8-0.2,1.5-0.5,2.2-0.9c0.7-0.3,1.4-0.7,2.1-1.2v-8.6h-6.2
        c-0.2,0-0.2-0.1-0.2-0.2v-0.2h6.8v9.1c-0.7,0.5-1.4,0.9-2.1,1.2c-0.7,0.4-1.5,0.7-2.3,1c-0.8,0.3-1.7,0.5-2.7,0.6
        c-1,0.1-2,0.2-3.2,0.2c-2,0-3.8-0.3-5.4-1c-1.6-0.6-3-1.6-4.1-2.8c-1.1-1.2-2-2.7-2.7-4.4c-0.6-1.7-0.9-3.7-0.9-5.9
        c0-2.2,0.3-4.1,0.9-5.9s1.5-3.2,2.7-4.4c1.2-1.2,2.6-2.2,4.3-2.8c1.7-0.7,3.5-1,5.6-1c1,0,2,0.1,2.8,0.2c0.9,0.1,1.6,0.3,2.4,0.6
        c0.7,0.3,1.4,0.6,2.1,1c0.6,0.4,1.3,0.9,1.9,1.4l-0.1,0.1c-0.1,0.1-0.1,0.1-0.2,0.1c-0.1,0-0.3-0.2-0.7-0.5c-0.3-0.3-0.9-0.6-1.5-1
        c-0.7-0.4-1.6-0.7-2.7-1c-1.1-0.3-2.4-0.5-4-0.5c-2,0-3.8,0.3-5.4,0.9c-1.6,0.6-3,1.5-4.1,2.7c-1.1,1.2-2,2.6-2.6,4.3
        s-0.9,3.6-0.9,5.7c0,2.1,0.3,4.1,0.9,5.7c0.6,1.7,1.5,3.1,2.6,4.3s2.4,2.1,4,2.7S419,274.2,420.9,274.2z"/>
</g>
<line x1="196" y1="226.6" x2="432.9" stroke="black" stroke-width="0.5" y2="226.6"/>
<g>
</g>
<g>
</g>
<g>
</g>
<g>
</g>
<g>
</g>
</svg>
